<svg width="121" height="121" viewBox="0 0 121 121" fill="none" xmlns="http://www.w3.org/2000/svg">
<path d="M97.1529 26.8722C90.4475 23.7463 83.1875 21.4776 75.625 20.1667C75.5587 20.1646 75.4928 20.1771 75.4318 20.2032C75.3708 20.2293 75.3163 20.2685 75.2721 20.318C74.3646 21.9817 73.3059 24.1497 72.6 25.8134C64.5787 24.6034 56.4213 24.6034 48.4 25.8134C47.6942 24.0992 46.6354 21.9817 45.6775 20.318C45.6271 20.2172 45.4759 20.1667 45.3246 20.1667C37.7621 21.4776 30.5525 23.7463 23.7967 26.8722C23.7463 26.8722 23.6959 26.9226 23.6454 26.973C9.93211 47.4926 6.15085 67.4576 8.01627 87.2209C8.01627 87.3217 8.06669 87.4226 8.16752 87.473C17.2425 94.128 25.9646 98.1613 34.5859 100.833C34.7371 100.884 34.8884 100.833 34.9388 100.733C36.9554 97.9596 38.7704 95.0355 40.3334 91.9601C40.4342 91.7584 40.3334 91.5567 40.1317 91.5063C37.2579 90.3971 34.5354 89.0863 31.8634 87.5738C31.6617 87.473 31.6617 87.1705 31.8129 87.0192C32.3675 86.6159 32.9221 86.1622 33.4767 85.7588C33.5775 85.658 33.7288 85.658 33.8296 85.7084C51.1729 93.6238 69.8775 93.6238 87.0192 85.7084C87.12 85.658 87.2713 85.658 87.3721 85.7588C87.9267 86.2126 88.4813 86.6159 89.0358 87.0697C89.2375 87.2209 89.2375 87.5234 88.9854 87.6242C86.3638 89.1871 83.5909 90.4476 80.7171 91.5567C80.5154 91.6071 80.465 91.8592 80.5154 92.0105C82.1288 95.0859 83.9438 98.0101 85.91 100.783C86.0613 100.833 86.2125 100.884 86.3638 100.833C95.0354 98.1613 103.758 94.128 112.833 87.473C112.933 87.4226 112.984 87.3217 112.984 87.2209C115.202 64.3821 109.303 44.5684 97.3546 26.973C97.3042 26.9226 97.2538 26.8722 97.1529 26.8722ZM42.955 75.1713C37.7621 75.1713 33.4263 70.3817 33.4263 64.483C33.4263 58.5842 37.6613 53.7947 42.955 53.7947C48.2992 53.7947 52.5342 58.6347 52.4838 64.483C52.4838 70.3817 48.2488 75.1713 42.955 75.1713ZM78.0954 75.1713C72.9025 75.1713 68.5667 70.3817 68.5667 64.483C68.5667 58.5842 72.8017 53.7947 78.0954 53.7947C83.4396 53.7947 87.6746 58.6347 87.6242 64.483C87.6242 70.3817 83.4396 75.1713 78.0954 75.1713Z" fill="white"/>
</svg>
