<svg width="24" height="24" viewBox="0 0 102 102" fill="none" xmlns="http://www.w3.org/2000/svg">
<path d="M33.15 8.5H68.85C82.45 8.5 93.5 19.55 93.5 33.15V68.85C93.5 75.3876 90.9029 81.6574 86.2802 86.2802C81.6574 90.9029 75.3876 93.5 68.85 93.5H33.15C19.55 93.5 8.5 82.45 8.5 68.85V33.15C8.5 26.6124 11.097 20.3426 15.7198 15.7198C20.3426 11.097 26.6124 8.5 33.15 8.5ZM32.3 17C28.2422 17 24.3506 18.612 21.4813 21.4813C18.612 24.3506 17 28.2422 17 32.3V69.7C17 78.1575 23.8425 85 32.3 85H69.7C73.7578 85 77.6494 83.388 80.5187 80.5187C83.388 77.6494 85 73.7578 85 69.7V32.3C85 23.8425 78.1575 17 69.7 17H32.3ZM73.3125 23.375C74.7215 23.375 76.0727 23.9347 77.069 24.931C78.0653 25.9273 78.625 27.2785 78.625 28.6875C78.625 30.0965 78.0653 31.4477 77.069 32.444C76.0727 33.4403 74.7215 34 73.3125 34C71.9035 34 70.5523 33.4403 69.556 32.444C68.5597 31.4477 68 30.0965 68 28.6875C68 27.2785 68.5597 25.9273 69.556 24.931C70.5523 23.9347 71.9035 23.375 73.3125 23.375ZM51 29.75C56.6358 29.75 62.0409 31.9888 66.026 35.974C70.0112 39.9591 72.25 45.3641 72.25 51C72.25 56.6358 70.0112 62.0409 66.026 66.026C62.0409 70.0112 56.6358 72.25 51 72.25C45.3641 72.25 39.9591 70.0112 35.974 66.026C31.9888 62.0409 29.75 56.6358 29.75 51C29.75 45.3641 31.9888 39.9591 35.974 35.974C39.9591 31.9888 45.3641 29.75 51 29.75ZM51 38.25C47.6185 38.25 44.3755 39.5933 41.9844 41.9844C39.5933 44.3755 38.25 47.6185 38.25 51C38.25 54.3815 39.5933 57.6245 41.9844 60.0156C44.3755 62.4067 47.6185 63.75 51 63.75C54.3815 63.75 57.6245 62.4067 60.0156 60.0156C62.4067 57.6245 63.75 54.3815 63.75 51C63.75 47.6185 62.4067 44.3755 60.0156 41.9844C57.6245 39.5933 54.3815 38.25 51 38.25Z" fill="white"/>
</svg>
